<svg xmlns="http://www.w3.org/2000/svg" width="26" height="15" viewBox="0 0 26 15"><path fill="#e37376" d="M16.138 11.51c.956-.31 2.18 2.04 3.483 2.94.98.68 1.73.533 1.73.533l3.472-.05s1.816-.112.958-1.554c-.07-.12-.503-1.07-2.585-3.024-2.177-2.043-1.882-1.712.74-5.244C25.53 2.96 26.17 1.644 25.97 1.084c-.192-.54-1.365-.4-1.365-.4l-3.915.03c-.38 0-.704.12-.85.515-.004.003-.622 1.665-1.446 3.08-1.74 2.987-2.436 3.146-2.724 2.96-.66-.434-.494-1.738-.494-2.665 0-2.897.432-4.105-.846-4.417-.427-.104-.74-.172-1.828-.182-1.392-.02-2.574 0-3.244.33-.445.222-.786.71-.58.74.26.034.844.16 1.156.585.4.553.39 1.79.39 1.79s.228 3.41-.54 3.834c-.53.29-1.25-.302-2.804-3.016-.793-1.388-1.392-2.922-1.392-2.922s-.116-.285-.326-.44c-.25-.186-.6-.245-.6-.245L.848.685S.29.7.085.946c-.182.218-.015.668-.015.668s2.91 6.88 6.203 10.347c3.02 3.184 6.452 2.973 6.452 2.973h1.555s.47-.054.71-.312c.223-.24.213-.69.213-.69s-.03-2.11.935-2.42z"/></svg>